<svg xmlns="http://www.w3.org/2000/svg" width="1651" height="539" fill="none"><g clip-path="url(#a)"><path fill="#EFF6FA" d="M175.502 281.426a5.032 5.032 0 1 0 0-10.064 5.032 5.032 0 0 0 0 10.064Z"/><path fill="#84B7D0" fill-opacity=".08" d="M177.894 271.967a5.508 5.508 0 0 1-4.133 9.152 5.031 5.031 0 0 0 4.131-9.15l.002-.002Z"/><path fill="#EFF6FA" d="M283.711 350.938c0 2.916-.396 5.743-1.136 8.425a31.464 31.464 0 0 1-3.72 8.421h-53.547a31.308 31.308 0 0 1-2.977-6.084 31.543 31.543 0 0 1-1.881-10.764c0-9.516 4.203-18.051 10.853-23.847a31.456 31.456 0 0 1 7.886-5.044c0-.003.004-.003.004-.003a31.499 31.499 0 0 1 12.887-2.737 31.462 31.462 0 0 1 15.051 3.806l.147.081c.163.087.322.178.483.269a31.506 31.506 0 0 1 2.678 1.718c.189.137.377.271.564.413.204.151.403.305.602.462a32.885 32.885 0 0 1 2.84 2.519 27.867 27.867 0 0 1 1.081 1.137 33.026 33.026 0 0 1 1.005 1.162c.144.178.289.356.431.539.157.199.311.398.462.602.153.203.301.407.448.615.137.189.269.38.402.573a32.356 32.356 0 0 1 1.618 2.661l.019.031c.113.213.229.427.336.645.106.202.205.403.301.605.027.055.055.106.078.158.093.198.189.401.28.601l.032.072c.097.218.189.434.284.651.087.205.169.407.254.615.021.057.045.112.066.169.081.208.159.418.238.63a28.68 28.68 0 0 1 .466 1.37c.106.326.202.657.295.988.061.21.114.422.169.632a30.258 30.258 0 0 1 .314 1.336c.004.019.009.036.011.055.021.093.04.189.057.286.041.21.085.422.121.632a51.61 51.61 0 0 1 .155.952c.025.153.046.306.066.463.036.28.07.564.101.846.009.087.019.174.026.261.021.209.04.417.055.625v.026a18.465 18.465 0 0 1 .053.848 26.692 26.692 0 0 1 .034.99c.004.195.006.388.006.585l.002.004Z"/><path fill="#84B7D0" fill-opacity=".08" d="M283.709 350.937c0 2.916-.395 5.743-1.135 8.425a31.435 31.435 0 0 1-3.721 8.421h-10.779a34.453 34.453 0 0 0 7.708-21.776 34.488 34.488 0 0 0-8.651-22.895l.148.081c.163.087.322.178.483.269a31.49 31.49 0 0 1 2.677 1.719c.19.136.377.27.564.412.205.151.403.305.602.462a33.255 33.255 0 0 1 2.841 2.519 30.282 30.282 0 0 1 1.55 1.667c.181.208.357.418.535.632.144.178.29.356.432.539.157.199.31.398.461.602.154.203.301.407.449.615a29.342 29.342 0 0 1 1.694 2.653c.111.193.219.387.325.581.006.01.012.017.019.031.114.214.229.427.337.645.106.203.204.403.301.606.026.054.055.106.077.157.093.198.19.401.281.601.011.025.02.048.032.072l.284.651c.087.205.168.407.253.615.021.057.046.112.066.169.082.208.159.418.239.63a.124.124 0 0 1 .011.036c.163.441.314.886.454 1.334.106.326.203.657.296.988.06.21.113.422.168.632a26.476 26.476 0 0 1 .314 1.336c.004.019.01.036.012.055.02.093.039.189.056.286.042.21.085.422.121.632.036.208.072.418.106.63.019.108.034.214.05.322.024.153.045.306.066.464a38.968 38.968 0 0 1 .127 1.107c.02.208.039.416.055.624v.027a23.202 23.202 0 0 1 .053.847c.011.21.018.422.024.632a37.814 37.814 0 0 1 .015.943v.002ZM91.307 367.442c.116.114.225.226.337.345h-3.49a34.451 34.451 0 0 0-4.11-5.753c.006.003.015.005.02.011.226.121.447.248.669.373.22.127.439.255.656.388.006 0 .012.005.02.009a23 23 0 0 1 .59.371c.034.019.062.04.093.061.195.123.388.25.58.382.2.136.402.271.597.413l.077.054c.172.123.34.248.51.373a29.8 29.8 0 0 1 1.25.981c.178.143.352.295.528.442a36.677 36.677 0 0 1 1.312 1.2c.12.114.24.233.357.35h.004Z"/><path fill="#EFF6FA" d="M242.893 339.909a44.667 44.667 0 0 1-9.709 27.876h-70.318a44.705 44.705 0 0 1-8.472-17.375 44.965 44.965 0 0 1-1.236-10.501c0-11.427 4.273-21.858 11.306-29.778a45.095 45.095 0 0 1 9.95-8.383h.004a44.647 44.647 0 0 1 23.608-6.707 44.66 44.66 0 0 1 22.651 6.13c.157.092.314.187.47.28a44.393 44.393 0 0 1 2.658 1.733c.167.114.33.233.492.35a40.719 40.719 0 0 1 2.453 1.908c.163.132.322.269.483.407.238.204.473.41.707.62l.434.392c.204.189.407.381.609.57.172.166.345.331.513.498.178.172.352.346.524.524.163.166.326.335.489.503a49.247 49.247 0 0 1 1.996 2.241 44.782 44.782 0 0 1 1.822 2.339c.144.202.29.403.432.605.144.203.284.407.426.612l.047.07c.259.386.515.778.765 1.175.039.06.077.123.117.187a81.144 81.144 0 0 1 .657 1.085l.371.647c.123.218.24.433.361.655a42.754 42.754 0 0 1 1.334 2.676c.123.265.244.529.358.798.038.089.072.178.11.265a36.723 36.723 0 0 1 .475 1.149 43.105 43.105 0 0 1 .728 1.985l.199.596c.011.042.026.082.04.123.077.241.153.483.225.723.076.244.144.488.214.733.07.244.138.492.202.738.066.244.129.488.189.736.063.248.122.497.178.743.057.254.116.506.169.759l.151.744c.004.027.01.051.015.076.042.229.086.454.123.683.042.233.078.462.116.693.019.096.034.189.045.283.057.371.112.744.157 1.119l.046.361c.021.184.041.367.06.551.032.299.063.6.087.897a45.636 45.636 0 0 1 .167 3.906h.002Z"/><path fill="#84B7D0" fill-opacity=".08" d="M242.89 339.909a44.667 44.667 0 0 1-9.709 27.876h-16.063a49.125 49.125 0 0 0 5.214-6.084 48.893 48.893 0 0 0 9.316-28.786c0-1.97-.117-3.914-.344-5.825-1.2-10.159-5.503-19.368-11.93-26.654.437.239.87.483 1.298.733.157.092.314.187.47.28a45.224 45.224 0 0 1 2.658 1.733c.167.114.33.233.492.35a40.772 40.772 0 0 1 1.88 1.439c.193.153.382.31.573.469.163.132.322.269.483.407.238.204.473.41.707.621.144.128.29.263.434.391l.609.57c.172.166.345.331.513.498l.524.524a48.242 48.242 0 0 1 2.485 2.744 44.782 44.782 0 0 1 1.822 2.339c.144.202.29.403.432.606.144.202.284.406.426.611l.047.07c.259.386.515.778.765 1.175l.117.187a81.144 81.144 0 0 1 .657 1.085l.371.647c.123.218.24.433.361.655a42.754 42.754 0 0 1 1.69 3.478c.182.403.35.814.513 1.223l.076.187a43.105 43.105 0 0 1 .728 1.985l.199.596c.011.042.026.082.04.123.077.241.153.483.225.723.075.244.144.488.214.733.07.244.138.492.202.738.066.244.129.488.189.736.063.248.121.498.178.744.057.253.116.505.169.758l.151.744c.004.027.01.051.015.076.042.229.085.454.123.683.042.233.078.462.116.693.019.096.034.189.045.284.057.37.112.743.157 1.118l.046.361.06.551c.032.299.063.6.087.897a45.636 45.636 0 0 1 .167 3.906l.002.002Z"/><path fill="#EFF6FA" d="M179.194 324.784c0 16.254-6.711 30.938-17.511 41.435a54.643 54.643 0 0 1-1.669 1.564H82.807a58.045 58.045 0 0 1-8.162-9.056c-6.93-9.53-11.016-21.258-11.016-33.945-.002-31.91 25.868-57.78 57.782-57.78 9.956 0 19.322 2.517 27.5 6.949a49.974 49.974 0 0 1 1.901 1.079 53.161 53.161 0 0 1 1.812 1.118 55.944 55.944 0 0 1 2.649 1.811c.462.331.92.676 1.37 1.022.148.116.295.229.443.346a53.136 53.136 0 0 1 1.274 1.032c.291.24.581.488.868.736.208.182.417.361.621.545.199.178.401.358.596.539a64.111 64.111 0 0 1 2.07 1.997c.479.484.95.978 1.41 1.48.214.233.426.463.636.698.214.24.426.483.632.723.208.24.413.484.617.729a51.465 51.465 0 0 1 .627.762c.189.241.382.483.573.727.195.25.388.503.581.757.189.255.38.513.566.768.189.26.373.519.558.778.337.483.668.971.994 1.461l.143.22a62.953 62.953 0 0 1 1.45 2.348c.488.829.956 1.673 1.395 2.525a51 51 0 0 1 .88 1.763l.35.742c.166.365.331.729.488 1.098h.004c.077.182.157.361.233.543.045.112.092.223.142.337.102.253.208.505.31.759.026.072.055.142.081.208.093.24.188.482.28.727.112.291.22.586.33.885a67.577 67.577 0 0 1 .636 1.872 45.889 45.889 0 0 1 .304.973 54.196 54.196 0 0 1 1.018 3.856 54.99 54.99 0 0 1 .315 1.473c.034.153.062.306.092.463a47.312 47.312 0 0 1 .35 2.025 50.301 50.301 0 0 1 .333 2.517c.019.159.035.316.052.477l.07.742c.015.163.026.322.039.483.012.132.021.265.031.397.011.129.02.256.026.382.021.284.04.566.051.85.019.337.034.676.046 1.016v.012c.011.285.019.575.024.865.01.391.012.783.012 1.175v-.008Z"/><path fill="#84B7D0" fill-opacity=".08" d="M179.191 324.784c0 16.254-6.71 30.938-17.511 41.435a53.464 53.464 0 0 1-1.669 1.563h-22.543a63.542 63.542 0 0 0 16.926-17.374c6.524-9.951 10.318-21.851 10.318-34.636 0-1.902-.085-3.785-.248-5.643-1.222-13.817-6.888-26.351-15.554-36.179.218.118.437.239.651.358.148.081.295.167.439.25a57.864 57.864 0 0 1 3.717 2.309c.138.092.274.187.412.284.163.107.326.223.485.336.219.152.437.307.655.468.461.331.919.675 1.37 1.022.147.115.295.229.443.346.265.208.528.416.789.63.163.133.325.265.484.402.292.24.581.488.869.736.208.181.416.361.621.545.198.178.401.357.596.539a65.952 65.952 0 0 1 2.07 1.997c.479.484.95.978 1.41 1.479a46.007 46.007 0 0 1 1.268 1.422c.208.24.412.484.617.728a51.381 51.381 0 0 1 .626.763c.19.24.383.483.574.727.195.249.388.503.581.757.189.255.38.513.566.768.189.259.372.519.558.778a72.13 72.13 0 0 1 1.137 1.68 68.513 68.513 0 0 1 1.45 2.349c.484.829.952 1.673 1.395 2.524a50.979 50.979 0 0 1 .88 1.764l.35.742c.166.365.331.729.488 1.098.077.181.157.361.235.543.045.111.092.223.141.337.103.253.209.505.311.758.026.072.055.142.081.209.093.24.188.482.28.726.112.292.22.587.33.886a59.248 59.248 0 0 1 1.438 4.589c.187.699.361 1.404.52 2.112a57.726 57.726 0 0 1 .314 1.473c.034.153.063.306.093.463a47.312 47.312 0 0 1 .35 2.025 50.205 50.205 0 0 1 .333 2.517c.019.159.034.316.051.477.025.248.048.494.07.742.016.163.027.322.04.482.012.133.021.265.03.398.012.128.021.255.027.382.021.284.04.566.051.85.019.337.034.675.045 1.016v.011a46.072 46.072 0 0 1 .036 2.04l.004-.003Z"/><path fill="#EFF6FA" d="M312.719 368.099c-1.357-2.703-4.097-5.061-6.883-6.453-10.101-5.05-22.876-4.268-32.285 1.977-2.034 1.349-3.968 2.958-6.307 3.664-1.687.509-3.477.513-5.237.513-54.713 0-109.423-.004-164.136-.006-2.09 0-4.234-.009-6.181-.764-1.828-.71-3.344-2.022-4.941-3.163-2.918-2.085-6.223-3.612-9.684-4.545a31.377 31.377 0 0 0-10.715-.977c-3.582.295-6.938 1.295-10.223 2.718-2.958 1.281-5.895 2.927-7.858 5.56-2.641 3.54-2.592 9.46 1.242 11.655 1.767 1.013 3.912 1.039 5.948 1.039l244.721-.032c4.96 0 11.05-.711 12.939-5.299.817-1.989.539-4.017-.398-5.883l-.002-.004Z"/><path fill="#84B7D0" fill-opacity=".08" d="M317.731 328.906h-15.666a8.27 8.27 0 0 0-8.27 8.27v.002a8.27 8.27 0 0 0 8.27 8.27h15.666a8.27 8.27 0 0 0 8.27-8.27v-.002a8.27 8.27 0 0 0-8.27-8.27Z"/><path fill="#EFF6FA" d="M29.558 378.227H6.66c-3.662 0-6.66-2.998-6.66-6.66s2.998-6.66 6.66-6.66h22.896c3.662 0 6.66 2.998 6.66 6.66s-2.998 6.66-6.66 6.66h.002Z"/></g><g clip-path="url(#b)"><path fill="#EFF6FA" d="M1527.05 452.718c1.68 0 3.05-1.362 3.05-3.041a3.046 3.046 0 0 0-6.09 0 3.047 3.047 0 0 0 3.04 3.041Z"/><path fill="#84B7D0" fill-opacity=".08" d="M1528.5 447.001c.52.587.83 1.358.83 2.202a3.329 3.329 0 0 1-3.33 3.329 3.04 3.04 0 0 0 4.09-2.855c0-1.156-.64-2.16-1.59-2.674v-.002Z"/><path fill="#EFF6FA" d="M1592.44 494.723c0 1.762-.23 3.471-.68 5.091a19.06 19.06 0 0 1-2.25 5.09h-32.36c-.72-1.15-1.33-2.38-1.8-3.677a19.19 19.19 0 0 1-1.13-6.505c0-5.75 2.54-10.908 6.55-14.41a19.095 19.095 0 0 1 4.77-3.048v-.002a19.05 19.05 0 0 1 7.79-1.654c3.29 0 6.39.832 9.1 2.3.02.016.06.033.08.049.1.052.2.107.3.162.24.139.48.283.71.431.09.056.18.114.27.172.21.141.43.286.63.436.12.082.23.163.35.249.12.091.24.184.36.279.1.077.19.154.29.233.38.31.74.633 1.1.969.11.105.22.213.33.32.1.108.21.217.32.328.11.118.22.239.33.359.09.106.19.213.28.321.11.125.22.252.33.382.08.107.17.215.26.326.09.12.18.24.28.363.09.123.18.246.27.372l.24.346c.27.409.54.827.78 1.257.07.117.13.233.2.351 0 .006 0 .011.01.019.07.129.14.258.2.39.07.122.13.243.18.365.02.034.04.065.05.095.06.12.11.243.17.364.01.015.01.029.02.044.06.131.11.261.17.393l.15.372c.02.034.03.067.04.101l.15.381v.022c.1.266.19.535.28.806l.18.597c.03.127.07.255.1.382.04.153.08.308.11.461.03.114.06.231.08.346 0 .012.01.022.01.034l.03.172c.03.127.05.255.07.382.03.126.05.253.07.381l.03.195c.01.092.03.185.04.28l.06.511c0 .052.01.105.01.158.02.125.03.251.04.377v.016l.03.448v.064c.01.127.01.255.01.382.01.074.01.144.01.217v.355Z"/><path fill="#84B7D0" fill-opacity=".08" d="M1592.44 494.723c0 1.762-.24 3.471-.68 5.091-.5 1.82-1.27 3.53-2.25 5.089H1583a20.835 20.835 0 0 0 4.65-13.159c0-5.304-1.97-10.149-5.22-13.836.02.016.06.034.08.05.1.052.2.107.3.162.24.138.48.282.71.431.09.056.18.113.27.172.21.14.43.286.63.435.12.083.23.164.35.25.12.091.24.184.36.279.1.076.19.154.29.233a21.401 21.401 0 0 1 1.43 1.289c.1.107.21.217.32.328.11.118.22.239.33.359.09.105.19.213.28.32.11.126.22.253.33.382.08.108.17.215.26.326.09.12.18.24.28.364.09.122.18.246.27.372l.24.346c.27.408.54.827.78 1.257.07.117.13.233.2.351 0 .006 0 .01.01.018.07.13.14.259.2.39.07.123.13.244.18.366.02.033.04.064.05.095.06.12.12.243.17.364.01.015.01.028.02.043.06.132.11.262.17.394l.15.371c.02.035.03.068.04.102l.15.381c0 .007 0 .015.01.022.09.266.19.535.27.806l.18.597c.03.127.07.255.1.382.04.153.08.307.11.461.03.114.06.231.08.346 0 .012.01.022.01.033l.03.173c.03.127.05.255.07.382.03.126.05.253.07.381l.03.194c.01.093.03.186.04.28l.06.512c0 .052.01.105.01.157.02.126.03.252.04.378v.016l.03.448v.064c.01.127.01.255.01.382.01.073.01.144.01.216v.355Zm-116.26 9.974c.07.068.13.136.2.208h-2.11a21.018 21.018 0 0 0-2.48-3.477c0 .003.01.004.01.007.14.074.27.15.4.226a8.42 8.42 0 0 1 .41.24c.12.073.24.147.36.224.02.011.04.024.05.037.12.074.24.15.36.231.12.082.24.163.36.249.01.011.03.022.04.033.11.074.21.15.31.225.03.022.06.044.09.068.23.169.45.344.67.525.1.087.21.178.32.267.13.117.26.234.39.354.08.067.15.138.23.211.05.052.11.105.17.16.07.069.14.141.21.212h.01Z"/><path fill="#EFF6FA" d="M1567.78 488.059c0 6.364-2.19 12.218-5.87 16.845h-42.49c-.25-.31-.49-.624-.72-.945a27.138 27.138 0 0 1-4.4-9.554 27.093 27.093 0 0 1-.75-6.346c0-6.905 2.58-13.209 6.83-17.995a27.281 27.281 0 0 1 6.02-5.066 26.967 26.967 0 0 1 14.27-4.053c4.67 0 9.06 1.181 12.9 3.262.26.144.53.291.78.442.1.056.19.113.29.169.42.258.84.525 1.25.806.12.077.24.16.35.242.1.069.2.141.3.212a28.58 28.58 0 0 1 .79.59c.11.091.23.184.35.279.11.092.23.187.34.283.1.08.2.163.3.246a47.223 47.223 0 0 1 .68.612c.13.114.25.23.37.344.11.101.21.2.31.301.11.104.22.209.32.317.1.1.2.202.29.304a25.057 25.057 0 0 1 1.21 1.354c.1.114.19.23.28.346.11.127.21.253.31.382.17.226.34.454.51.685.09.123.18.244.26.366.09.123.17.246.26.37l.03.042c.16.233.31.47.46.71.03.037.05.075.07.114.12.184.23.371.34.559l.06.096c.07.129.15.261.22.391.08.131.15.262.22.396l.21.399c.14.265.28.535.41.808.06.136.13.274.19.41.07.16.15.32.21.482.03.054.05.108.07.16l.24.581c.02.038.03.075.05.114.1.255.19.51.29.768l.15.431.12.36c0 .026.01.05.02.075.05.145.09.291.14.437.04.147.08.295.13.442l.12.446c.04.148.08.295.11.445.04.15.08.301.11.449.04.154.07.306.1.459l.09.449c.01.016.01.031.01.046.03.139.06.275.08.413a6 6 0 0 0 .07.419l.03.171.09.676.03.218.03.333.06.542.03.445c.02.288.04.578.05.867 0 .133.01.268.01.403v.234c.01.136.01.274.01.412Z"/><path fill="#84B7D0" fill-opacity=".08" d="M1567.78 488.059c0 6.364-2.2 12.218-5.87 16.845h-9.71a29.456 29.456 0 0 0 3.15-3.677 29.486 29.486 0 0 0 5.63-17.395c0-1.19-.07-2.365-.2-3.52a29.622 29.622 0 0 0-7.21-16.106c.26.144.52.291.78.442.1.056.19.113.28.169a25.433 25.433 0 0 1 1.61 1.048c.1.069.2.141.3.211.14.105.29.21.43.317.12.089.24.181.35.274.12.091.24.184.35.279.12.092.24.187.35.283.1.08.2.163.29.246.15.124.29.248.43.375.09.078.18.159.26.237.13.114.25.23.37.344.1.101.21.2.31.301.11.105.21.212.32.317.1.1.19.202.29.304.32.329.62.668.92 1.012.1.113.19.228.29.342.09.114.19.23.28.346.1.127.2.253.3.382.18.226.35.454.52.685.09.123.17.244.26.366.09.123.17.246.26.37l.03.042c.15.233.31.47.46.71.02.037.05.075.07.113.11.185.23.372.34.56l.06.096c.07.129.15.26.22.391s.15.262.22.396l.21.399c.14.265.27.535.4.808.07.136.13.274.2.41l.21.484c.11.244.21.492.31.739.02.038.03.075.05.113.1.255.19.511.29.769l.15.431.12.36c0 .025.01.05.02.075.05.145.09.291.14.437.04.147.08.295.13.442l.12.446c.04.148.08.295.11.445.04.15.08.301.11.449.03.154.07.306.1.459l.09.449c.01.016.01.031.01.046.03.139.05.275.08.413a6 6 0 0 0 .07.419c.01.058.02.114.02.171.04.224.07.45.1.676l.03.218.03.333.06.542.03.445c.02.288.04.578.05.867 0 .133.01.268.01.403v.234c0 .136.01.274.01.412v.001Z"/><path fill="#EFF6FA" d="M1529.29 478.919c0 9.822-4.06 18.695-10.59 25.039-.33.322-.66.637-1 .945h-46.66a34.7 34.7 0 0 1-4.93-5.473 34.74 34.74 0 0 1-6.66-20.512c0-19.284 15.63-34.917 34.92-34.917 6.01 0 11.67 1.521 16.62 4.2v.002l.39.216c.09.049.18.101.27.151.16.091.32.185.48.282.23.133.45.27.68.409l.42.267a35.785 35.785 0 0 1 1.2.812c.14.092.27.185.4.283.28.2.56.408.83.617l.27.209c.16.126.32.252.47.381.1.08.2.16.3.243.17.145.35.295.52.445.13.109.25.218.38.329a38.779 38.779 0 0 1 1.61 1.532 35.924 35.924 0 0 1 1.23 1.317l.39.437c.12.145.24.292.37.44.12.147.24.297.36.446.01.006.01.009.02.015.11.145.23.291.34.439.12.151.24.304.35.457.12.155.23.31.35.465l.33.47c.21.291.41.586.6.882l.09.133c.2.304.39.612.58.922l.3.497c.29.501.57 1.011.84 1.526.17.317.33.636.48.958.02.037.03.073.05.108l.21.448.3.663c.05.11.1.219.14.329l.09.203.18.459c.02.043.04.085.05.125.06.146.12.292.17.44.07.176.14.354.2.535.01.012.01.024.01.036.13.363.26.727.38 1.095.05.172.11.347.16.522.01.022.01.044.02.066.11.35.21.701.3 1.054.11.422.22.849.32 1.276.03.166.07.332.11.499.02.131.05.261.08.391.02.093.03.185.05.28.07.33.12.663.18.996l.03.228c.04.211.07.422.1.636.01.136.03.273.05.411.02.157.04.315.05.474.02.096.02.191.03.288.02.15.03.298.05.448.01.099.01.195.02.292.01.08.01.16.02.24.01.078.01.154.02.231l.03.514c.01.203.02.408.02.614v.007c.01.172.02.347.02.522 0 .237.01.474.01.71v-.004Z"/><path fill="#84B7D0" fill-opacity=".08" d="M1529.28 478.918c0 9.823-4.05 18.696-10.58 25.04-.33.322-.66.637-1.01.944h-13.62a38.36 38.36 0 0 0 10.23-10.499 38.06 38.06 0 0 0 6.23-20.93c0-1.15-.05-2.288-.15-3.411-.73-8.349-4.16-15.923-9.39-21.862l.39.216c.09.05.18.101.26.151.17.092.33.186.49.283.23.132.45.27.67.408.15.089.29.178.43.268.22.141.44.288.66.436.08.057.17.114.25.172.1.065.2.135.29.204.13.091.27.185.4.282.28.2.55.408.83.618.08.069.17.138.26.209.16.126.32.251.48.381.1.08.2.16.29.242.18.145.35.295.53.445.12.11.25.218.37.329.12.108.25.216.36.326.33.299.64.601.96.909.1.099.2.197.29.298.29.293.58.591.86.894.13.141.25.28.38.422.13.145.26.292.38.437.13.145.25.293.38.44l.36.446c0 .006.01.009.01.015.12.145.23.292.35.439.12.151.23.304.35.458.12.154.23.31.34.464.12.157.23.313.34.47.2.292.4.587.6.883l.09.132c.19.305.39.612.58.922.1.166.2.332.29.498.3.501.58 1.011.85 1.525.16.317.32.636.48.959.01.036.03.073.05.107l.21.448.3.664c.04.109.09.218.14.328.02.067.05.135.08.203.06.154.13.306.19.459.02.043.03.086.05.126.06.145.11.291.17.439.07.176.13.354.2.535 0 .013 0 .024.01.037.13.362.25.726.37 1.094.06.173.11.348.17.523 0 .022.01.043.02.065l.3 1.054c.11.422.22.849.31 1.277.04.165.08.331.11.498.03.132.06.261.08.391l.06.281c.06.329.12.663.17.996.01.076.03.151.04.227l.09.636c.02.136.04.273.05.412l.06.473.03.288c.02.15.03.299.04.449l.03.291c0 .08.01.16.02.24 0 .078.01.155.01.231.01.172.03.342.03.514l.03.614v.007c.01.173.01.348.01.523.01.236.01.473.01.71v-.003Z"/><path fill="#EFF6FA" d="M1609.97 505.094c-.82-1.633-2.47-3.058-4.15-3.9-6.11-3.051-13.83-2.579-19.51 1.195-1.23.815-2.4 1.788-3.82 2.214-1.02.308-2.1.31-3.16.31l-99.19-.003c-1.26 0-2.56-.006-3.73-.462-1.11-.429-2.02-1.222-2.99-1.911a18.178 18.178 0 0 0-5.85-2.747c-2.1-.566-4.3-.77-6.48-.59-2.16.178-4.19.782-6.17 1.642-1.79.774-3.57 1.769-4.75 3.36-1.6 2.139-1.57 5.717.75 7.043 1.07.612 2.36.628 3.59.628l147.89-.019c2.99 0 6.67-.43 7.82-3.203.49-1.201.32-2.427-.24-3.555l-.01-.002Z"/><path fill="#84B7D0" fill-opacity=".08" d="M1613 481.409h-9.46a5 5 0 0 0-5 4.998v.001a5 5 0 0 0 5 4.998h9.46a5 5 0 0 0 5-4.998v-.001a5 5 0 0 0-5-4.998Z"/><path fill="#EFF6FA" d="M1438.86 511.214h-13.84a4.035 4.035 0 0 1-4.02-4.025 4.035 4.035 0 0 1 4.02-4.024h13.84c2.21 0 4.03 1.812 4.03 4.024 0 2.213-1.82 4.025-4.03 4.025Z"/></g><g clip-path="url(#c)"><path fill="#EFF6FA" d="M1537.68 285.104a45.1 45.1 0 0 1-1.43 11.338h-87.94a45.018 45.018 0 0 1-1.27-7.573 45.226 45.226 0 0 1 2.92-20.229c3.09-7.943 8.36-14.799 15.06-19.841a45.095 45.095 0 0 1 8.69-5.131 45.169 45.169 0 0 1 18.57-3.963c3.32 0 6.55.354 9.66 1.03 4.06.878 7.92 2.304 11.5 4.19 4.8 2.533 9.1 5.902 12.69 9.914.82.915 1.6 1.866 2.34 2.847a45.255 45.255 0 0 1 7.61 15.41c.13.483.26.97.37 1.46a45.276 45.276 0 0 1 1.23 10.548Zm92.66 11.338h-58.33c.02-.469.06-.932.11-1.393.74-7.041 3.99-13.337 8.83-17.981a29.195 29.195 0 0 1 9.36-6.045 29.14 29.14 0 0 1 10.86-2.088c11.69 0 21.77 6.859 26.44 16.769a29.071 29.071 0 0 1 2.73 10.738Zm-304.94 0c.14-2.485.59-4.889 1.32-7.168 3.76-11.796 14.8-20.339 27.84-20.339.48 0 .95.013 1.43.036 14.9.713 26.88 12.603 27.74 27.473h-58.33v-.002Z"/><path fill="#EFF6FA" d="M1630.39 285.548c-.94 0-1.87.053-2.78.155-7.4.819-13.83 4.884-17.83 10.738h-275.56a25.063 25.063 0 0 0-7.5-7.168 24.821 24.821 0 0 0-13.11-3.725c-6.86 0-13.07 2.766-17.57 7.241-1.97 1.957-3.04 4.643-3.04 7.419a9.029 9.029 0 0 0 9.03 9.032h339.59c5.18 0 9.38-4.199 9.38-9.377a9.79 9.79 0 0 0-2.79-6.829 24.88 24.88 0 0 0-17.82-7.486Zm-138.72-23.426c13.99-13.981 13.99-36.65 0-50.631-13.98-13.982-36.65-13.982-50.63 0-13.98 13.981-13.98 36.65 0 50.631 13.98 13.982 36.65 13.982 50.63 0Z"/><path fill="#EFF6FA" d="M1502.16 275.094c15.79 0 28.59-12.8 28.59-28.589 0-15.789-12.8-28.588-28.59-28.588s-28.59 12.799-28.59 28.588c0 15.789 12.8 28.589 28.59 28.589Z"/><path fill="#EFF6FA" d="M1541.98 275.094c15.79 0 28.59-12.8 28.59-28.589 0-15.789-12.8-28.588-28.59-28.588-15.78 0-28.58 12.799-28.58 28.588 0 15.789 12.8 28.589 28.58 28.589Z"/><path fill="#EFF6FA" d="M1590.55 275.094c0 8.019-2.67 15.416-7.17 21.348h-56.45c-4.5-5.932-7.16-13.329-7.16-21.348 0-2.236.2-4.428.6-6.548.17-.899.37-1.788.61-2.662a35.188 35.188 0 0 1 5.15-11.047 36.27 36.27 0 0 1 4.45-5.209c6.37-6.147 15.03-9.925 24.57-9.925 2.84 0 5.59.335 8.23.963 2.44.578 4.78 1.414 7 2.47v.001a33.212 33.212 0 0 1 2.64 1.399l.37.22c.09.049.17.1.25.149.12.077.25.155.37.233.2.12.39.247.58.372l.42.282c.13.091.27.182.4.276a34.567 34.567 0 0 1 1.49 1.099c.15.115.29.229.44.346.01.009.03.021.04.032.14.111.28.224.41.338.85.709 1.67 1.454 2.45 2.237.08.08.16.164.24.247.11.109.21.218.32.329.13.14.27.282.4.427.82.89 1.59 1.822 2.32 2.794.09.124.18.248.27.369.12.158.23.318.34.478.11.151.22.304.32.454l.06.086c.2.305.4.612.6.923.18.289.36.583.54.877.03.048.06.097.08.148.1.163.19.325.28.49l.06.104c.18.307.34.618.51.93.09.175.18.351.26.525.09.175.18.353.26.531a33.416 33.416 0 0 1 1.57 3.846c.06.157.11.313.16.471.05.174.11.351.16.525.04.102.07.204.1.305.13.444.25.891.37 1.343.03.116.06.229.08.345.14.569.27 1.141.38 1.719.03.18.06.36.1.54a6 6 0 0 0 .07.419c.01.1.03.197.04.297.03.185.06.367.08.552.03.182.05.365.07.549.01.089.03.18.04.272l.03.289c.04.431.08.865.11 1.298.03.372.05.743.06 1.117.01.174.01.351.02.529v.303c.01.18.01.358.01.538v.005Z"/><path fill="#84B7D0" fill-opacity=".08" d="M1590.55 275.096c0 8.019-2.67 15.416-7.17 21.348h-12.53c.43-.454.86-.919 1.28-1.393a38.617 38.617 0 0 0 8.82-17.981c.48-2.422.73-4.928.73-7.488 0-9.823-3.66-18.79-9.68-25.616.19.102.38.205.56.313.16.087.31.174.46.265l.37.22c.09.049.17.1.25.149.12.076.25.154.37.232.2.12.39.247.58.373.14.092.28.187.42.281.13.091.27.182.4.277a31.312 31.312 0 0 1 1.49 1.099c.15.114.29.229.44.345.01.009.03.022.04.033.14.111.28.223.41.338a35.77 35.77 0 0 1 2.45 2.236c.08.08.16.164.24.248.11.109.21.218.32.328.13.14.27.282.4.427.82.891 1.59 1.823 2.32 2.795l.27.369c.12.158.23.318.34.478.11.15.22.303.32.454l.06.085c.2.306.4.613.6.923.18.289.36.584.54.878.03.047.06.096.08.147.1.164.19.325.28.491.02.032.04.069.06.103.18.307.34.618.51.931.09.174.18.35.26.525.09.174.18.352.26.53a33.23 33.23 0 0 1 1.57 3.847c.06.156.11.312.16.47.05.175.11.351.16.525.04.102.07.204.1.306.13.443.25.89.37 1.342.03.117.06.229.08.346.14.568.27 1.141.38 1.719.03.179.06.359.1.539.02.14.04.28.07.42.01.1.03.196.04.296.03.185.06.367.08.552.03.182.05.366.07.549.01.089.03.182.03.273.02.096.03.192.04.289.05.43.08.865.11 1.297.03.372.05.743.06 1.117.01.175.02.351.02.529 0 .102.01.202.01.304v.537Zm-34.96-53.74a31.152 31.152 0 0 1 7.82 20.693c0 17.285-14.01 31.296-31.29 31.296 3.08 1.132 6.4 1.75 9.87 1.75 15.79 0 28.59-12.799 28.59-28.589 0-10.863-6.06-20.312-14.99-25.15Z"/><path fill="#EFF6FA" d="M1467.46 265.121c0 2.499-.17 4.999-.51 7.479a55.465 55.465 0 0 1-9.1 23.841h-92.39a56.16 56.16 0 0 1-1.02-1.557c-.11-.164-.21-.329-.31-.495-.11-.172-.21-.345-.31-.518-.11-.174-.21-.348-.32-.523l-.3-.523c-.2-.351-.4-.703-.59-1.058-.38-.708-.76-1.42-1.1-2.14-.18-.36-.35-.721-.52-1.085a55.842 55.842 0 0 1-5-19.572c-1.07-15.534 4.33-31.429 16.21-43.304 17.67-17.672 44.24-21.012 65.28-10.025a55.719 55.719 0 0 1 13.63 10.025c6.7 6.695 11.34 14.666 13.92 23.133.04.131.08.26.11.391.01.015.01.031.02.046.09.299.17.601.26.904 0 .019.01.04.01.06.09.315.17.631.26.947l.24.983c.16.656.3 1.315.43 1.977.13.654.25 1.312.36 1.969 0 .019.01.039.01.06l.12.767c.02.116.03.233.05.349l.09.716.09.69c.04.297.07.589.09.885.02.107.03.213.04.32.01.173.03.349.04.523.03.307.05.616.07.923.02.217.03.431.04.647.01.111.02.226.02.336l.03.734c0 .048.01.095.01.142.01.271.02.538.02.807v.289c.01.287.01.576.01.861l.01-.004Z"/><path fill="#84B7D0" fill-opacity=".08" d="M1360.99 288.541a60.913 60.913 0 0 0 9.69 7.9h-5.23c-.34-.516-.68-1.033-1.02-1.557l-.3-.494c-.11-.173-.21-.345-.32-.518-.11-.174-.21-.349-.31-.523l-.3-.523a58.574 58.574 0 0 1-1.7-3.198l-.51-1.085v-.002Zm106.46-23.421c0 2.498-.17 4.998-.5 7.479a55.583 55.583 0 0 1-9.1 23.84h-20.18a60.883 60.883 0 0 0 9.7-7.902 60.962 60.962 0 0 0 11.84-16.645 61.167 61.167 0 0 0 5.93-22.705c0 .014.01.031.01.045.09.3.18.602.26.905.01.018.01.04.02.06.08.314.17.631.25.947l.24.983c.16.656.3 1.315.43 1.977.14.654.26 1.311.36 1.969a.12.12 0 0 1 .01.06l.12.767c.02.116.03.232.05.349.04.24.07.476.1.716.03.229.05.461.08.69.04.296.07.589.1.885l.03.32c.01.172.03.349.05.523.02.307.04.616.07.923.01.216.03.431.04.647 0 .111.01.225.01.336.02.247.03.491.04.734v.142c.01.271.02.538.02.807 0 .094.01.192.01.288 0 .288.01.576.01.862v-.002Z"/><path fill="#EFF6FA" d="M1325.39 260.149c6.59 0 11.93-5.339 11.93-11.925s-5.34-11.925-11.93-11.925c-6.58 0-11.92 5.339-11.92 11.925s5.34 11.925 11.92 11.925Z"/><path fill="#84B7D0" fill-opacity=".08" d="M1331.07 237.736c2.03 2.3 3.26 5.322 3.26 8.63 0 7.21-5.84 13.054-13.05 13.054 1.28.472 2.67.73 4.12.73 6.58 0 11.92-5.338 11.92-11.925 0-4.531-2.53-8.472-6.25-10.489Zm296.08-10.303h-15.68c-4.57 0-8.28 3.706-8.28 8.278 0 4.572 3.71 8.278 8.28 8.278h15.68c4.57 0 8.28-3.706 8.28-8.278 0-4.572-3.71-8.278-8.28-8.278Z"/></g><g clip-path="url(#d)"><path fill="#EFF6FA" d="M1089.15 530.202c-.03-.062-.07-.121-.11-.18-.08-.12-.15-.239-.23-.356-.04-.059-.08-.12-.13-.179-.04-.057-.07-.114-.12-.17a4.871 4.871 0 0 0-.22-.31c-.02-.033-.05-.066-.07-.098-.06-.073-.11-.146-.17-.218-.11-.135-.21-.267-.32-.4-.04-.049-.08-.101-.13-.151a17.51 17.51 0 0 0-2.54-2.458c-.04-.035-.09-.07-.13-.105-.06-.042-.11-.087-.17-.129a17.5 17.5 0 0 0-1.14-.797l-.18-.112a9.733 9.733 0 0 0-.47-.282c-.07-.042-.14-.081-.21-.121-.06-.035-.12-.071-.19-.104a.995.995 0 0 0-.06-.038v-.001a17.66 17.66 0 0 0-8.42-2.128 17.617 17.617 0 0 0-11.31 4.083 17.821 17.821 0 0 0-4.22 5.108c-.22.41-.66.661-1.13.661H910.736a.097.097 0 0 1-.011-.023c-.006-.009-.01-.019-.015-.03-.059-.118-.12-.234-.182-.352a16.333 16.333 0 0 0-.747-1.281 19.822 19.822 0 0 0-.708-1.025l-.073-.098c-.056-.073-.111-.146-.168-.218-.059-.078-.12-.153-.182-.23a8.856 8.856 0 0 0-.174-.211c-.066-.08-.134-.159-.201-.237-.064-.073-.127-.147-.193-.219a9.84 9.84 0 0 0-.196-.217l-.199-.213a17.71 17.71 0 0 0-.961-.937c-.04-.035-.079-.072-.12-.107-.168-.15-.339-.296-.513-.437-.099-.082-.2-.163-.303-.243-.05-.041-.103-.08-.156-.121a16.983 16.983 0 0 0-.874-.63c-.115-.079-.232-.155-.348-.231l-.011-.006-.176-.112a13.51 13.51 0 0 0-.363-.221l-.064-.038v-.001l-.08-.046a17.968 17.968 0 0 0-.428-.24l-.001-.001a17.62 17.62 0 0 0-8.421-2.128c-5.643 0-10.668 2.641-13.909 6.753a9.16 9.16 0 0 0-1.959 5.669 4.205 4.205 0 0 0 4.205 4.205h201.185c3.1 0 5.61-2.51 5.61-5.605 0-.779-.2-1.546-.58-2.224-.11-.197-.21-.37-.27-.46Z"/><path fill="#EFF6FA" d="M978.871 526.303c0 1.888-.296 3.706-.843 5.411h-33.704a17.72 17.72 0 0 1-.843-5.41 17.654 17.654 0 0 1 6.234-13.482 17.682 17.682 0 0 1 5.615-3.225h.001a17.648 17.648 0 0 1 5.845-.989 17.626 17.626 0 0 1 8.489 2.167c.064.034.127.07.188.104.072.04.142.08.211.122.158.09.314.184.468.282.058.036.118.073.175.111a13.885 13.885 0 0 1 .712.479c.115.081.23.166.343.25l.17.128.168.13c.098.078.194.155.29.234l.063.05.142.12c.107.09.215.183.321.278l.158.142.156.144c.103.096.206.194.307.292l.151.15c.417.416.811.852 1.185 1.308.074.092.15.184.222.277.055.069.108.138.161.207l.1.133a16.733 16.733 0 0 1 .37.515 15.578 15.578 0 0 1 .47.715 15.735 15.735 0 0 1 .64 1.111l.182.351c.067.139.135.277.2.418.031.064.06.13.09.194.088.196.174.395.255.594.027.067.055.134.08.201a12.812 12.812 0 0 1 .227.608c.049.136.095.273.139.411l.052.162a18.882 18.882 0 0 1 .345 1.265c.024.101.047.202.068.303l.03.141.046.23.002.01c.029.149.055.298.08.449l.034.211v.003a18.026 18.026 0 0 1 .192 2.067c.003.084.006.168.007.252.003.125.005.25.005.376h.001Z"/><path fill="#84B7D0" fill-opacity=".08" d="M978.871 526.303c0 1.888-.296 3.707-.844 5.411h-5.394a19.24 19.24 0 0 0 1.802-8.171c0-4.911-1.828-9.392-4.839-12.807a.652.652 0 0 1 .068.038l.187.104c.072.04.143.08.211.122.158.09.314.184.468.282a13.848 13.848 0 0 1 .887.59c.115.081.231.166.344.25l.17.128c.055.043.112.088.168.13.097.076.194.154.29.234l.062.051.142.119c.108.09.216.184.321.278l.158.142.156.144c.103.096.207.194.307.292l.151.15a17.473 17.473 0 0 1 1.408 1.585l.161.207.099.133a13.665 13.665 0 0 1 .371.515 16.556 16.556 0 0 1 .469.715c.19.302.369.609.539.923l.101.188c.062.117.121.233.182.351.068.139.135.277.201.418l.089.194c.088.196.174.395.255.594l.081.201a19 19 0 0 1 .226.608c.049.136.096.273.139.411l.052.162a18.895 18.895 0 0 1 .291 1.039 10.959 10.959 0 0 1 .122.529l.03.141.047.23.001.01h.001c.029.149.054.298.079.449l.034.211v.003a15.29 15.29 0 0 1 .151 1.333c.006.072.011.143.015.216.006.069.009.137.013.206.006.105.01.208.014.312.003.084.006.168.007.252.003.125.005.25.005.376l.002.001Z"/><path fill="#EFF6FA" d="M1027.64 527.992c0 1.282-.15 2.529-.44 3.724h-26.67c.03.057.06.113.08.17-.02-.057-.05-.113-.08-.17h-4.472a15.983 15.983 0 0 1-.431-4.075c.013-.629.063-1.25.146-1.858 1.077-7.796 7.767-13.798 15.857-13.798 2.72 0 5.28.677 7.53 1.875l.09.05c0 .002.01.005.01.007.07.04.15.081.22.122.08.043.16.088.23.133a16.885 16.885 0 0 1 1.05.668c.05.033.09.065.14.098.1.074.21.15.31.227l.15.115.15.118c.11.08.21.16.3.242l.15.118c0 .005 0 .008.01.011.05.039.09.078.14.119.32.28.63.573.93.88l.18.179c.06.07.13.138.19.208l.18.191c.35.392.67.8.98 1.223.03.03.05.06.07.091.13.177.25.358.37.541.04.054.07.107.11.162.03.054.07.107.1.163.14.224.28.455.41.688.05.103.11.206.16.308.11.206.22.413.32.624.02.056.05.11.07.166.07.147.14.297.2.448.02.055.05.107.07.162.08.195.16.393.23.593.02.052.04.104.05.156.06.155.11.312.16.471.02.067.05.136.07.204.01.051.03.104.04.156.02.073.04.146.07.219.06.217.11.435.16.656l.03.119.06.304.03.162c.02.065.03.13.04.196.01.065.03.131.04.197l.03.195.03.239.03.214c0 .022.01.042.01.063.01.079.02.158.02.239l.03.252v.052c.01.081.02.163.02.244 0 .038.01.074.01.111.01.153.02.306.02.459.01.188.01.378.01.569Z"/><path fill="#84B7D0" fill-opacity=".08" d="M1027.64 527.992c0 1.283-.15 2.53-.44 3.725h-4.71c.09-.244.18-.49.26-.739.57-1.724.88-3.567.88-5.482 0-4.442-1.66-8.498-4.38-11.586 0 .002.01.005.01.007.07.039.15.08.22.122.08.043.16.087.23.133a16.885 16.885 0 0 1 1.05.668c.05.032.09.065.14.098.1.073.21.15.31.226l.15.116c.05.038.1.078.15.118.11.079.2.16.3.241.05.04.1.08.15.118 0 .005 0 .008.01.011.04.039.09.079.14.12.32.28.63.573.93.88.06.058.12.119.18.179.06.069.13.138.19.207l.18.192c.34.391.67.8.98 1.223.03.03.05.059.07.09.13.178.25.359.37.542.04.053.07.107.11.162.03.053.07.107.1.162.14.225.28.455.41.689.05.102.11.206.16.308.11.205.22.412.32.624.02.055.05.11.07.166.07.147.14.297.2.448.02.054.05.107.07.162.08.194.16.393.23.593.02.051.04.104.05.156.06.155.11.312.16.47.02.068.05.137.07.204.01.052.03.104.04.157.02.073.04.145.07.219.05.216.11.435.16.655l.03.119.06.304.03.162c.02.066.03.131.04.196l.03.198c.02.065.03.13.04.194l.03.24.03.213c0 .022.01.042.01.063.01.08.02.159.02.239l.03.253v.051c.01.082.02.163.02.245 0 .038.01.073.01.11.01.153.02.306.02.46.01.188.01.378.01.568v.001Z"/><path fill="#EFF6FA" d="M1080.46 501.96c2.81 0 5.09-2.276 5.09-5.084a5.088 5.088 0 0 0-5.09-5.084 5.08 5.08 0 0 0-5.08 5.084 5.08 5.08 0 0 0 5.08 5.084Z"/><path fill="#84B7D0" fill-opacity=".08" d="M1082.88 492.403a5.565 5.565 0 0 1-4.18 9.245c.55.201 1.14.311 1.76.311a5.08 5.08 0 0 0 5.08-5.085 5.072 5.072 0 0 0-2.66-4.472v.001Z"/><path fill="#EFF6FA" d="M959.846 500.199a3.752 3.752 0 1 0 0-7.504 3.752 3.752 0 0 0 0 7.504Z"/><path fill="#84B7D0" fill-opacity=".08" d="M961.631 493.147a4.107 4.107 0 0 1-3.081 6.821 3.752 3.752 0 0 0 3.082-6.822l-.001.001Z"/><path fill="#EFF6FA" d="M893.122 515.447a3.42 3.42 0 1 0 0-6.84 3.42 3.42 0 0 0 0 6.84Z"/><path fill="#84B7D0" fill-opacity=".08" d="M894.749 509.019a3.743 3.743 0 0 1-2.807 6.219 3.42 3.42 0 0 0 2.808-6.218l-.001-.001Z"/><path fill="#EFF6FA" d="M949.026 490.421a1.709 1.709 0 1 0 0-3.418 1.709 1.709 0 0 0 0 3.418Z"/><path fill="#84B7D0" fill-opacity=".08" d="M949.839 487.207a1.872 1.872 0 0 1-1.403 3.11 1.71 1.71 0 0 0 1.403-3.11Z"/><path fill="#EFF6FA" d="M1072.53 517.211c0 1.628-.15 3.22-.43 4.768a26.477 26.477 0 0 1-3.84 9.737h-45.05a26.705 26.705 0 0 1-4.26-14.505c0-1.134.07-2.254.2-3.35 1.65-13.215 12.93-23.439 26.59-23.439 4.61 0 8.96 1.167 12.75 3.222v.001c.1.054.2.111.3.168.07.037.14.074.2.113.09.051.19.104.28.159.12.07.24.143.36.215 0 .003.01.007.01.01a21.419 21.419 0 0 1 1.07.687l.18.12c.05.032.1.066.14.098.07.047.14.094.2.141.02.01.03.021.05.031.07.055.15.11.23.166.02.019.05.04.08.06.08.062.17.126.25.19.26.193.51.392.76.594.09.067.17.137.25.206.24.198.48.399.71.605.1.089.2.178.29.27l.06.047c.1.093.2.187.3.283 0 .003.01.008.01.011l.3.294c.01.001.01.003.01.005l.3.304c.11.106.21.216.32.324.09.094.17.187.26.282.13.135.25.272.37.41.09.097.17.194.26.291.09.112.19.225.28.338.1.113.19.227.29.343v.01c.19.225.36.456.54.688.08.112.17.223.25.335.01.021.03.041.04.063.08.105.16.213.23.32.07.103.15.207.22.311l.06.098c.08.107.15.216.22.326.32.487.62.987.91 1.496.01.014.02.026.02.039.07.116.13.232.2.347 0 .009 0 .018.01.026.07.126.14.252.2.379.01.01.01.022.02.033.06.126.13.253.19.38.07.133.13.266.2.401.06.135.13.27.19.406.06.131.12.261.17.393l.21.481.12.298c.07.161.13.322.19.484.05.121.09.242.13.362.02.04.03.079.05.119l.09.255c.01.053.03.106.05.16.01.023.02.044.02.067.04.105.07.211.11.316l.12.404a210.782 210.782 0 0 1 .14.465l.09.324c.02.086.05.172.07.259a.68.68 0 0 0 .04.136l.06.246c.03.12.05.24.08.36l.09.385c.01.041.01.08.02.12l.06.268.03.169c0 .019.01.039.01.059l.06.335c.01.015.01.031.01.046.03.134.05.267.07.402v.034c.03.149.05.297.07.446.02.113.03.225.05.338v.048c.01.056.02.114.02.171.02.103.03.207.04.311.01.16.03.32.04.481.01.079.02.156.02.235.01.062.01.125.02.188 0 .05.01.102.01.153.01.115.01.231.02.347 0 .033.01.066.01.099 0 .143.01.286.01.428.01.143.01.286.02.43v.521Z"/><path fill="#84B7D0" fill-opacity=".08" d="M1072.53 517.21c0 1.628-.15 3.221-.42 4.769a26.835 26.835 0 0 1-3.84 9.737h-9.17a29.723 29.723 0 0 0 3.73-5.769 29.26 29.26 0 0 0 2.99-12.913c0-7.435-2.77-14.22-7.33-19.389.1.054.2.111.31.167.06.038.13.075.2.114.09.05.18.104.27.159.12.07.24.143.36.215.01.003.01.007.02.01.11.067.22.134.33.203.25.157.49.319.74.484.06.039.12.079.17.12l.15.098c.06.047.13.093.2.141.01.01.03.021.04.031.08.055.15.11.23.166.03.019.06.04.08.059.09.063.17.127.26.191.25.193.51.392.76.593.08.068.17.137.25.207.24.198.47.399.7.605.1.088.2.178.3.27.02.015.03.031.05.047.1.093.2.187.3.283 0 .003.01.008.01.011.11.097.21.195.31.294v.005c.1.101.21.202.31.304.1.106.21.215.31.324.09.094.18.186.27.282.12.135.24.272.37.41.08.096.17.194.25.291.1.111.19.225.29.338.09.113.19.226.28.343 0 .003 0 .007.01.01.18.225.36.456.53.688.09.111.17.223.25.335.02.021.03.041.05.062.07.106.15.214.22.32.08.104.15.208.22.312.02.032.05.065.07.098l.21.325c.32.488.63.988.91 1.496l.03.04c.06.115.13.232.19.347 0 .009.01.018.01.026.07.126.14.252.2.379.01.01.02.022.02.033.07.126.13.252.2.38.06.133.13.266.19.401.07.135.13.27.19.406l.18.393c.07.159.14.319.2.48l.12.298c.07.161.13.323.19.485.05.12.09.242.14.362.01.04.03.079.04.119l.09.254c.02.054.04.107.05.161l.03.067c.03.105.07.21.1.316.04.135.09.27.13.404.01.019.01.04.02.059l.12.406c.03.107.06.216.08.324.03.086.05.172.07.259a.7.7 0 0 1 .04.136l.06.246.09.36c.03.128.05.256.08.385l.03.12c.02.089.03.179.05.268l.03.169c.01.019.01.039.02.059l.06.334c0 .016 0 .032.01.047l.06.401c0 .013 0 .024.01.035l.06.446c.02.112.03.225.05.338v.048l.03.17.03.311c.02.16.03.321.05.482.01.079.01.156.02.235 0 .062.01.125.01.187.01.051.01.103.01.153.01.116.02.232.02.348.01.033.01.066.01.098.01.143.01.287.02.429 0 .143.01.286.01.43v.52Z"/><path fill="#EFF6FA" d="M1000.54 531.716c.03.057.06.113.08.17-.03-.057-.05-.113-.08-.17h-31.736a17.768 17.768 0 0 1 9.757-8.769h.001a17.644 17.644 0 0 1 6.11-1.083 17.619 17.619 0 0 1 8.994 2.452c.122.073.243.145.363.222l.176.111.011.007a18.627 18.627 0 0 1 1.223.86l.156.122a16.358 16.358 0 0 1 1.063.904c.072.065.143.133.213.199a17.26 17.26 0 0 1 1.208 1.27 14.421 14.421 0 0 1 .734.91 9.645 9.645 0 0 1 .345.473c.057.08.112.161.167.241.167.244.327.495.481.747l.146.246.148.255c.04.08.09.161.13.241.1.178.19.359.28.54l.03.052Z"/><path fill="#84B7D0" fill-opacity=".08" d="m1000.51 531.665.03.053h-3.279a19.241 19.241 0 0 0-1.626-4.074 19.325 19.325 0 0 0-2.539-3.649c.193.104.385.211.572.324a10.326 10.326 0 0 1 .539.333 17.457 17.457 0 0 1 2.666 2.092 16.476 16.476 0 0 1 .82.833c.065.072.131.144.195.217.065.072.13.146.193.219.067.078.134.155.199.234a18.231 18.231 0 0 1 .737.949l.143.2.167.241c.167.245.327.495.481.748l.146.246c.046.083.096.169.146.254.05.081.09.161.13.242.1.177.19.358.29.539l-.01-.001Z"/><path fill="#EFF6FA" d="M956.43 517.21a26.653 26.653 0 0 1-4.263 14.505h-45.052a26.633 26.633 0 0 1-3.183-6.952c-.047-.161-.094-.322-.137-.485a26.754 26.754 0 0 1-.942-7.068c0-14.796 11.994-26.789 26.789-26.789a26.657 26.657 0 0 1 13.2 3.473c.105.057.208.118.311.178l.019.011.362.215c.005.003.01.007.016.009.125.078.249.154.374.234a25.323 25.323 0 0 1 .781.511c.096.066.193.131.289.2.139.097.279.198.417.298.114.082.226.166.338.25a29.187 29.187 0 0 1 1.01.8 27.776 27.776 0 0 1 1 .875l.05.047c.103.093.202.187.303.283l.013.011c.102.097.203.195.303.294l.005.005c.103.101.203.202.304.304.106.106.21.215.314.324.089.094.177.186.265.282a24.109 24.109 0 0 1 .912 1.039c.096.113.188.226.282.343l.008.01c.182.225.361.456.536.688.083.111.167.223.248.335l.046.062c.077.106.153.214.227.32.073.104.146.208.216.312a26.167 26.167 0 0 1 1.193 1.92c.008.013.016.025.023.039l.193.347.014.026c.067.126.136.252.201.379l.017.033c.066.126.13.252.194.38l.196.401c.064.135.128.27.189.406.06.13.12.26.177.393.071.16.138.319.206.48l.121.298c.065.161.128.323.19.485.046.12.09.242.134.362.015.04.03.079.043.119l.088.254.056.161c.008.023.016.044.022.067.037.105.071.21.105.316l.126.404c.007.019.013.04.018.059l.027.091a.647.647 0 0 1 .013.041c.01.04.023.079.033.119l.046.154c.031.107.062.216.089.324a19.566 19.566 0 0 1 .105.395l.061.246c.03.12.058.24.086.36.03.128.057.256.085.385l.025.12.056.268c.011.057.023.113.032.169l.011.059c.022.111.042.222.062.334l.008.047c.024.134.046.267.066.401.002.013.003.024.006.035.024.149.046.297.066.446l.046.338.006.048a11.354 11.354 0 0 1 .055.481 19.172 19.172 0 0 1 .067.717c.006.062.01.125.015.187.005.051.008.103.011.153l.021.348c.002.033.005.066.005.098.008.143.014.287.018.429a15.326 15.326 0 0 1 .012.503c.003.149.005.297.005.447l-.005.004Z"/><path fill="#84B7D0" fill-opacity=".08" d="M956.433 517.211a26.654 26.654 0 0 1-4.264 14.505h-9.17a29.19 29.19 0 0 0 6.72-18.682l-.001-.21a29.212 29.212 0 0 0-7.326-19.181c.152.083.303.166.452.252.104.057.207.118.311.177l.018.011c.122.072.242.143.362.216.005.003.01.007.016.009a38.127 38.127 0 0 1 .72.454c.146.095.291.193.435.291.097.066.193.131.289.2a26.97 26.97 0 0 1 1.766 1.348 26.594 26.594 0 0 1 .999.875l.051.047a19.601 19.601 0 0 1 .619.588l.005.005c.102.099.202.201.304.304.105.106.209.215.313.323l.266.283c.125.135.248.272.371.41.086.096.17.194.255.291a24.192 24.192 0 0 1 .567.68l.009.01a25.826 25.826 0 0 1 .784 1.024l.045.062c.078.105.153.214.228.32a21.613 21.613 0 0 1 .282.409c.072.108.145.217.216.326.32.488.624.988.91 1.496l.023.04.193.347.014.026c.067.126.136.252.202.379l.016.033a19.33 19.33 0 0 1 .39.781c.064.135.128.27.19.406.059.13.119.26.176.392.071.16.138.32.206.481l.121.298c.065.161.128.323.19.485.047.12.09.241.134.362.015.039.03.079.043.119.031.085.059.169.088.254.019.054.038.106.056.161l.023.067a19.314 19.314 0 0 1 .248.778c.014.044.027.089.039.134.029.09.054.181.08.273.031.107.062.215.09.324l.069.259c.013.046.024.09.035.136l.062.245.085.361c.03.128.058.256.085.384l.025.121.056.268.033.169.011.058.061.335.008.047c.024.134.046.267.067.401.002.013.003.024.006.035a30.769 30.769 0 0 1 .111.784c.002.016.005.031.006.047l.021.171a25.36 25.36 0 0 1 .101 1.027l.015.188c.005.051.008.103.011.153.008.115.015.232.021.348.002.033.005.065.006.098.008.143.014.286.018.428a15.3 15.3 0 0 1 .012.504c.002.149.004.297.004.447l-.003.003Zm44.107 14.505c.02.056.05.113.08.17-.03-.057-.06-.114-.08-.17Z"/><path fill="#EFF6FA" d="M1018.39 494.748h-6.41a3.883 3.883 0 0 0 0 7.763h6.41c2.15 0 3.89-1.738 3.89-3.882a3.885 3.885 0 0 0-3.89-3.881Z"/></g><g clip-path="url(#e)"><path fill="#EFF6FA" d="M31.335 28.03a5.832 5.832 0 1 0 0-11.663 5.832 5.832 0 0 0 0 11.664Z"/><path fill="#F7F7F7" d="M34.11 17.069a6.384 6.384 0 0 1-4.79 10.606 5.832 5.832 0 0 0 4.79-10.606Z"/><path fill="#EFF6FA" d="M157.45 38.305c0 4.236-.687 8.31-1.957 12.118H82.795a38.25 38.25 0 0 1-1.956-12.118c0-14.387 7.933-26.923 19.663-33.47.035-.02.071-.038.105-.058h.001A38.131 38.131 0 0 1 119.146 0c6.724 0 12.807 1.669 18.228 4.61l.008.003a43.04 43.04 0 0 1 1.626.933 43.32 43.32 0 0 1 2.133 1.396c.008.005.015.009.02.015.17.12.339.24.507.361.205.15.41.303.613.457.102.076.202.154.302.23l.132.103c.313.244.62.493.923.745l.066.055.37.315c.224.192.449.388.668.587l.257.232c.065.06.131.12.195.182a27 27 0 0 1 .449.421l.346.334.076.077c.11.107.218.217.324.324.029.029.058.057.085.086.102.103.201.204.298.309a8.7 8.7 0 0 1 .288.304c.063.066.125.13.184.196a38.25 38.25 0 0 1 .965 1.08c.112.13.224.263.336.395.018.02.036.04.052.063.128.154.256.307.38.463.006.006.009.011.013.017.128.159.255.319.379.48.127.162.252.324.375.489l.017.02c.126.166.249.333.37.502.111.153.221.304.329.458.029.043.06.084.088.127a32.587 32.587 0 0 1 1.11 1.678c.084.131.164.261.243.394.071.115.14.231.211.35a38.73 38.73 0 0 1 1.251 2.285l.101.202c.071.139.138.278.204.418.062.126.122.254.183.38.008.018.015.036.024.053.064.136.126.273.187.41a21.222 21.222 0 0 1 .188.425c.059.135.119.27.176.405.038.091.076.183.116.275l.2.494c.039.1.08.2.118.3.092.238.183.476.268.716a37.724 37.724 0 0 1 .69 2.07l.081.273a35.01 35.01 0 0 1 .565 2.157c.04.167.077.334.113.504.027.12.052.241.076.364.055.262.107.526.155.79l.058.325c.077.433.146.867.206 1.306l.02.146a36.289 36.289 0 0 1 .142 1.175l.024.222c.012.128.025.256.035.385.012.13.024.26.034.393l.024.312c.016.23.03.462.043.693.006.105.01.211.015.316.001.013.001.028.003.04l.01.28.016.533.006.303c.002.186.003.375.003.56l.003.004Z"/><path fill="#F7F7F7" d="M157.45 38.306c0 4.235-.687 8.31-1.957 12.117h-11.735a41.77 41.77 0 0 0 4.093-18.09 41.78 41.78 0 0 0-10.478-27.725 37.59 37.59 0 0 1 2.196 1.287c.177.112.356.228.534.343.177.117.352.232.527.352.172.116.341.235.51.351.008.006.015.01.02.016.169.12.339.24.507.361.205.15.41.303.613.457l.302.23.132.103c.312.245.618.493.922.746l.067.054.37.315a32.868 32.868 0 0 1 .924.819 31.625 31.625 0 0 1 .645.604l.345.333.077.077a35.35 35.35 0 0 1 .995 1.023c.063.066.125.13.183.196a38.205 38.205 0 0 1 .965 1.08c.113.13.225.263.337.395.018.02.036.04.052.063.128.154.256.307.38.463.006.006.009.011.013.017.127.159.255.319.379.48a32.964 32.964 0 0 1 .762 1.011c.111.153.221.304.328.458.03.043.061.084.089.127a34.656 34.656 0 0 1 1.11 1.678c.084.131.164.261.242.394a38.743 38.743 0 0 1 1.463 2.635l.101.203c.071.138.137.277.204.417l.183.38c.008.018.015.036.024.053.064.136.126.273.187.41.063.138.125.276.185.414l.003.011.176.406.115.274.201.494c.039.1.08.2.118.3.092.238.182.476.268.716a37.724 37.724 0 0 1 .659 1.968l.031.103c.027.09.055.181.081.272a36.194 36.194 0 0 1 .754 3.025c.055.263.107.526.155.79l.058.325c.077.433.146.868.205 1.307.008.047.014.097.021.145l.043.326c.037.281.07.564.099.85l.024.221c.011.128.025.256.035.385.012.13.024.26.034.393l.024.312c.016.23.029.462.042.693l.016.316.002.041.011.28.016.532.006.303c.002.186.003.375.003.561l.004.004Z"/><path fill="#EFF6FA" d="M120.38 38.305c0 4.236-.687 8.31-1.956 12.118H45.727a38.25 38.25 0 0 1-1.956-12.118c0-1.237.058-2.46.174-3.666C45.79 15.204 62.157 0 82.076 0a38.136 38.136 0 0 1 18.257 4.624l.277.152c.084.047.168.093.251.141.174.099.349.197.522.3.017.01.037.02.056.033l.498.297c.007.006.016.01.022.013.166.101.331.204.496.309l.089.056c.129.081.257.163.385.247a28.811 28.811 0 0 1 1.062.716c.413.287.82.585 1.222.89.101.075.201.153.302.23l.132.102c.147.116.292.23.435.347l.026.02c.155.126.308.251.461.379l.067.055c.125.104.248.21.37.315a44.244 44.244 0 0 1 .854.755l.294.27c.012.011.026.023.037.035.163.15.321.3.479.453l.247.239.08.08a33.016 33.016 0 0 1 .994 1.023 5.5 5.5 0 0 1 .184.196 38.205 38.205 0 0 1 .965 1.08c.112.13.224.263.337.396a32.413 32.413 0 0 1 1.198 1.511c.008.007.012.014.017.02a45.784 45.784 0 0 1 .647.885l.199.285a33.839 33.839 0 0 1 1.051 1.595c.083.131.163.262.242.394a38.17 38.17 0 0 1 1.768 3.255c.062.127.121.254.182.38l.024.053c.065.136.127.273.187.41a13.447 13.447 0 0 1 .189.425c.058.135.118.27.175.406l.116.274c.067.165.135.33.2.494.04.1.08.2.118.3a30.327 30.327 0 0 1 .401 1.083 35.957 35.957 0 0 1 .526 1.602 13.998 13.998 0 0 1 .112.374 35.01 35.01 0 0 1 .566 2.157 24.012 24.012 0 0 1 .188.868c.055.263.108.526.155.791a34.82 34.82 0 0 1 .264 1.63l.02.146c.016.109.029.218.043.326.037.282.071.564.099.85.009.073.017.147.024.221.012.128.025.257.036.386.012.13.024.26.033.392a39.589 39.589 0 0 1 .067 1.006l.016.316.002.04.011.28c.006.176.01.355.015.533.003.1.004.201.006.303.003.186.004.374.004.56l.002.001Z"/><path fill="#F7F7F7" d="M120.38 38.306c0 4.235-.687 8.31-1.956 12.117h-11.735a41.768 41.768 0 0 0 4.092-18.09c0-10.522-3.878-20.137-10.279-27.498l-.199-.227a.34.34 0 0 0 .029.016c.092.051.184.101.275.154a22.621 22.621 0 0 1 .776.439l.056.033c.167.099.333.197.498.297a27.847 27.847 0 0 1 .518.322l.09.056c.128.081.256.164.384.247a30.717 30.717 0 0 1 1.063.716c.412.287.819.585 1.221.89.101.075.202.153.302.23l.132.102c.147.116.293.23.436.348l.025.02c.155.125.309.25.461.378l.067.055c.125.104.248.21.37.315a44.458 44.458 0 0 1 .854.755l.295.27.037.035c.162.15.321.3.478.454.084.08.166.158.247.238l.08.08c.11.107.218.215.324.325l.085.085a16.059 16.059 0 0 1 .394.41 8.7 8.7 0 0 1 .192.204c.063.065.125.13.183.195a38.205 38.205 0 0 1 .965 1.08c.113.13.225.263.337.396a22.193 22.193 0 0 1 .432.526 29.511 29.511 0 0 1 .392.496 23.068 23.068 0 0 1 .391.51 45.784 45.784 0 0 1 .647.885l.199.284a35.164 35.164 0 0 1 1.293 1.99 38.17 38.17 0 0 1 1.768 3.255c.062.126.122.254.183.38l.023.052c.065.136.127.274.188.41.063.138.125.276.185.415l.003.01c.059.135.118.27.175.406l.116.274.201.494c.039.1.08.2.118.3.092.238.182.477.268.716a34.24 34.24 0 0 1 .659 1.968l.031.103.081.272a37.46 37.46 0 0 1 .909 3.816l.058.325c.076.433.146.867.205 1.306.007.048.013.098.021.146.015.108.028.217.042.325a29.14 29.14 0 0 1 .123 1.071c.012.128.025.257.036.386a33.06 33.06 0 0 1 .057.705c.017.23.03.461.043.693l.016.316.002.04.011.28c.006.176.011.355.015.533.003.1.004.201.006.303.003.186.004.374.004.56l.002.002Z"/><path fill="#EFF6FA" d="m207.265 50.355.011.068h-75.834c1.517-10.601 7.374-19.802 15.712-25.745a38.147 38.147 0 0 1 22.205-7.09 38.134 38.134 0 0 1 18.258 4.623l.53.294c.185.103.368.21.551.316a23.367 23.367 0 0 1 .676.408c.122.074.245.15.366.228.028.016.055.034.083.052a32.998 32.998 0 0 1 .953.623l.156.107a21.69 21.69 0 0 1 .444.307c.328.23.651.465.971.706.044.033.088.065.13.099.141.105.279.213.417.32a35.842 35.842 0 0 1 1.469 1.206 40.74 40.74 0 0 1 .995.888 39.108 39.108 0 0 1 1.265 1.225l.067.066c.132.136.265.273.396.411l.031.035a24.218 24.218 0 0 1 .505.54c.117.127.23.255.343.38l.357.405.094.11c.127.147.251.295.376.444.136.162.268.324.402.489.003.006.008.01.013.017.128.158.254.318.379.48.127.161.251.324.375.488.007.007.011.015.017.02a53.493 53.493 0 0 1 .699.961c.029.043.06.083.088.126a32.592 32.592 0 0 1 1.11 1.678c.083.132.164.262.243.394l.211.35a38.992 38.992 0 0 1 1.556 2.907c.062.126.122.254.183.38a21.222 21.222 0 0 1 .4.887c.058.136.118.27.175.406.038.091.076.183.116.275l.2.494c.039.1.08.2.118.3.092.237.183.476.268.716a37.007 37.007 0 0 1 .69 2.072l.081.27a36.157 36.157 0 0 1 .754 3.026c.055.261.107.526.155.79l.058.325c.066.373.127.748.181 1.127l.001-.004Z"/><path fill="#F7F7F7" d="m73.013 50.381.03.043h-5.688A41.998 41.998 0 0 0 60.251 39.2c.156.084.31.169.462.256.066.037.131.072.196.11.137.077.274.156.41.237.022.01.044.025.066.038a30.287 30.287 0 0 1 1.21.742c.283.178.563.361.84.551a34.305 34.305 0 0 1 1.721 1.233c.102.076.202.153.302.23l.138.108a23.208 23.208 0 0 1 .556.445c.121.098.24.194.358.293l.072.059c.125.104.248.21.37.315.163.138.324.279.485.423l.28.25c.03.026.058.053.089.082l.294.27c.013.01.026.023.038.035.162.15.32.3.478.454.083.08.166.158.247.238l.08.08c.11.107.218.215.324.325.029.027.057.057.085.085a18.041 18.041 0 0 1 .395.41c.065.066.13.136.192.204.063.064.125.13.184.195a34.724 34.724 0 0 1 .965 1.08l.336.397a23.147 23.147 0 0 1 .445.543c.127.158.255.318.38.48a24.282 24.282 0 0 1 .39.509c.127.165.25.332.371.502l.003.001Z"/><path fill="#EFF6FA" d="M207.276 50.423v1.938a4.12 4.12 0 0 1-4.121 4.119h-187.8a4.347 4.347 0 0 1-3.08-1.275A4.344 4.344 0 0 1 11 52.126c0-1.137.378-2.244 1.087-3.131 7.017-8.78 17.821-14.404 29.936-14.404a38.12 38.12 0 0 1 18.691 4.863c.098.055.194.108.288.169.11.052.217.116.322.18.02.01.04.025.062.037a30.295 30.295 0 0 1 1.21.741c.283.178.563.362.84.552a34.403 34.403 0 0 1 1.721 1.234c.102.074.202.152.302.23a26.293 26.293 0 0 1 .494.39c.067.053.135.107.2.162.121.097.24.194.358.293l.072.059c.125.103.248.21.37.314.163.139.324.28.485.424l.28.25c.03.025.058.053.089.082.099.089.197.18.294.27l.037.035c.163.149.321.3.479.453.083.08.166.159.247.239.047.047.1.095.14.152.076.054.14.12.196.195.049.037.103.093.153.144a18.411 18.411 0 0 1 .395.41c.065.066.13.135.192.203.063.065.125.13.183.196.062.064.12.129.178.193.267.292.531.587.787.888.114.13.225.263.337.396.047.055.094.11.118.19a.519.519 0 0 1 .283.314c.026.012.035.027.045.039.128.158.255.318.38.479a24.663 24.663 0 0 1 .39.51c.127.165.25.332.371.502.011.013.02.028.03.043h134.234Z"/><path fill="#F7F7F7" d="M207.27 52.598a4.12 4.12 0 0 1-4.114 3.882h-5.095c.002-.14.003-4.546.003-6.057v-.5c0-10.63-3.958-20.335-10.477-27.725l.029.016a43.714 43.714 0 0 1 1.57.902c.063.038.126.076.187.115.122.074.245.15.366.228l.083.053c.165.103.331.21.495.318.154.1.305.202.458.304l.156.107c.143.096.284.195.425.294l.019.013c.328.23.651.467.971.706.044.034.088.066.13.1.141.104.279.213.417.32a40.976 40.976 0 0 1 1.469 1.205 40.74 40.74 0 0 1 .995.889 34.976 34.976 0 0 1 1.265 1.225l.067.065c.132.136.265.273.396.412.011.01.022.024.031.034a24.218 24.218 0 0 1 .505.54c.117.127.23.255.343.381.121.135.239.269.357.405l.094.11c.127.146.251.294.376.443.136.162.268.325.402.49l.013.016a33.495 33.495 0 0 1 .754.969l.017.02c.125.166.249.333.371.502.11.153.219.304.328.458.029.043.06.084.088.127a32.592 32.592 0 0 1 1.11 1.678c.083.131.164.261.243.394.071.115.14.231.211.35a38.992 38.992 0 0 1 1.556 2.906l.183.38a21.493 21.493 0 0 1 .4.888c.058.135.118.27.175.406l.116.274.2.494c.039.1.08.2.118.3.092.238.183.477.268.716a37.007 37.007 0 0 1 .69 2.072l.081.271a36.157 36.157 0 0 1 .754 3.025c.055.261.107.526.155.791l.058.325c.066.373.127.748.181 1.127v.068l.003 2.176.004-.008Z"/><path fill="#EFF6FA" d="M228.626 47.907h-10.527a3.127 3.127 0 0 0-3.127 3.127v1.206c0 1.728 1.4 3.128 3.127 3.128h10.527c1.728 0 3.128-1.4 3.128-3.128v-1.206c0-1.727-1.4-3.127-3.128-3.127ZM159.518 10.39h-3.555a3.74 3.74 0 0 1-3.73-3.73 3.74 3.74 0 0 1 3.73-3.73h3.555a3.74 3.74 0 0 1 3.73 3.73 3.74 3.74 0 0 1-3.73 3.73Zm39.807-.35h-25.351a3.74 3.74 0 0 1-3.73-3.73 3.74 3.74 0 0 1 3.73-3.73h25.351a3.741 3.741 0 0 1 3.73 3.73 3.741 3.741 0 0 1-3.73 3.73Z"/></g><g clip-path="url(#f)"><path fill="#EFF6FA" d="M1148.93 67.318c1.42 0 2.56-1.147 2.56-2.562a2.557 2.557 0 0 0-2.56-2.563 2.557 2.557 0 0 0-2.56 2.563 2.557 2.557 0 0 0 2.56 2.562Z"/><path fill="#F7F7F7" d="M1150.15 62.501c.44.494.7 1.144.7 1.855a2.8 2.8 0 0 1-2.8 2.805 2.557 2.557 0 0 0 3.44-2.406c0-.973-.54-1.82-1.34-2.254Z"/><path fill="#EFF6FA" d="M1204.35 71.832c0 1.862-.3 3.652-.86 5.325h-31.94a16.742 16.742 0 0 1-.86-5.325c0-6.322 3.48-11.83 8.64-14.707.01-.008.03-.017.04-.025a16.773 16.773 0 0 1 8.15-2.1c2.95 0 5.63.734 8.01 2.026v.002a28.8 28.8 0 0 1 .73.415c.08.049.15.098.23.148l.24.15c.08.052.15.103.23.155.07.051.15.103.22.155.01.002.01.004.01.007.08.052.15.105.22.158.1.066.19.133.27.201.05.034.09.068.14.101l.06.045c.13.108.27.217.4.328l.03.024c.05.046.11.092.16.139.1.084.2.17.3.257.03.034.07.068.11.102.03.027.06.053.08.08.07.061.14.123.2.185l.15.147.04.034c.05.047.09.095.14.142.01.013.02.025.04.038.04.045.08.09.13.136.01.014.03.029.04.044.03.029.06.06.08.09.03.028.06.056.08.085.03.029.06.057.08.085.12.129.24.258.35.39l.15.174c0 .008.01.017.02.027.06.068.11.135.17.204v.007c.06.07.11.14.17.21.05.072.11.143.16.216a2.76 2.76 0 0 1 .17.23l.15.2c.01.02.02.037.04.056.03.053.07.107.11.161a8.636 8.636 0 0 1 .37.577c.04.057.08.114.11.173l.09.153c.2.328.38.663.55 1.004.02.03.03.06.05.09l.09.183c.03.056.05.112.08.167 0 .008 0 .016.01.023.03.06.05.12.08.18s.06.122.08.183v.004c.03.06.06.119.08.178.02.04.03.08.05.12l.09.218c.02.044.03.088.05.132l.12.314.06.161c.07.198.13.396.2.596l.03.108c0 .015.01.03.01.045.01.04.03.08.04.12.07.247.14.496.2.747.01.066.03.133.05.2.01.074.03.147.05.222l.03.16c.02.115.05.231.07.348.01.047.01.095.02.142.04.19.07.381.09.574.01.021.01.043.01.064.01.048.01.096.02.143.02.124.03.248.04.373.01.033.01.066.01.098a.97.97 0 0 1 .02.17c.01.056.01.114.02.172 0 .045 0 .091.01.137 0 .101.01.203.01.305a.65.65 0 0 1 .01.138v.018c0 .041.01.082.01.123v.234c.01.044.01.089.01.133v.248Z"/><path fill="#F7F7F7" d="M1204.35 71.832c0 1.861-.3 3.651-.86 5.324h-5.15a18.384 18.384 0 0 0 1.79-7.948c0-1.149-.1-2.274-.3-3.364a18.395 18.395 0 0 0-4.3-8.819l.24.136a25.102 25.102 0 0 1 .49.282c.08.049.16.098.23.148l.24.15c.08.052.15.102.23.155.08.051.15.103.22.154.01.003.01.005.01.007.08.053.15.106.23.16.09.065.18.132.27.2.04.033.08.067.13.101l.06.045c.13.108.27.217.4.328l.03.024c.06.045.11.092.16.138.1.085.2.17.3.258.03.034.07.068.11.102l.09.08c.06.06.13.123.19.185l.15.147.04.033c.05.048.09.096.14.143.01.013.03.025.04.038.04.045.09.09.13.135.01.015.03.03.04.044l.09.09c.02.029.05.057.08.086.02.028.05.057.07.085.12.128.24.258.35.39.05.056.1.115.15.173.01.01.01.018.02.028.06.068.11.135.17.203v.008c.06.07.12.14.17.21.06.072.11.143.16.215.01.004.01.007.01.01.06.072.11.146.17.22.04.067.09.134.14.201.01.02.03.037.04.056.04.053.07.106.11.16.1.142.19.285.28.43.03.048.07.098.1.147.03.058.07.115.1.173.03.051.06.102.1.154.19.328.37.662.55 1.004.01.03.03.06.04.09l.09.183c.03.055.05.111.08.167 0 .008.01.016.01.023.03.06.06.12.08.18.03.06.06.121.08.182 0 .002 0 .003.01.005.02.06.05.118.07.178.02.04.04.08.05.12l.09.218a.71.71 0 0 1 .05.132l.12.314.06.161c.07.197.14.396.2.596l.03.108c.01.015.01.03.01.045.02.04.03.08.04.12.07.247.14.496.2.747.02.066.03.133.05.2.02.074.03.147.05.222l.03.16c.02.115.05.231.07.347.01.048.02.096.02.143.04.19.07.381.09.574.01.02.01.043.01.064.01.048.02.095.02.143.02.124.03.248.05.373 0 .033 0 .065.01.098 0 .056.01.112.01.169.01.057.01.114.02.172 0 .046 0 .092.01.138 0 .1.01.203.02.304v.157c.01.04.01.082.01.123 0 .077 0 .156.01.234v.381Z"/><path fill="#EFF6FA" d="M1188.06 71.832c0 1.862-.3 3.652-.86 5.325h-31.94a16.742 16.742 0 0 1-.78-6.936c.81-8.54 8-15.22 16.75-15.22 2.9 0 5.63.733 8.01 2.025.01.002.01.004.01.006.05.023.09.045.13.067.03.02.07.041.11.062.07.044.15.087.23.132 0 .005.01.01.02.014.07.044.15.087.22.131 0 .003.01.004.01.006.07.044.14.09.22.136.01.007.02.016.04.024.05.036.11.072.17.109.1.07.21.143.32.217.05.032.1.064.14.097.18.127.36.258.54.391.04.033.09.068.13.101l.06.045c.06.051.13.102.19.153 0 .003.01.006.01.009.07.055.14.11.2.166l.03.024c.06.046.11.092.17.139a11.998 11.998 0 0 1 .33.296c.02.011.03.023.04.035.05.04.09.08.13.119.01.005.01.01.02.015l.21.2c.03.035.07.07.11.105l.03.035c.05.047.1.095.14.142.02.013.03.025.04.038.05.045.09.09.13.136.02.014.03.029.04.044l.09.09c.03.028.05.056.08.085.03.029.05.057.08.085.11.129.23.258.34.39l.15.174c.01.009.02.018.02.028.06.067.12.134.17.203 0 .002.01.005.01.007.05.07.11.14.16.21.06.072.11.143.17.216 0 .003 0 .006.01.009.05.072.1.146.16.22a245.022 245.022 0 0 1 .21.294c.12.182.25.366.37.553l.09.148c.04.057.07.114.11.173l.09.153c.21.356.41.72.59 1.094l.09.183c.03.056.06.112.08.167.01.008.01.016.01.023.03.06.06.12.08.18l.09.183v.004c.02.06.05.119.07.178l.06.121c.02.072.05.145.08.217l.06.132c.04.104.08.21.11.315l.06.16c.07.198.14.396.2.596l.03.108c.01.015.01.03.02.046l.03.119c.07.247.14.496.2.747.02.066.04.134.05.2.02.074.03.147.05.222l.03.16c.03.116.05.231.07.348l.03.142.09.574c0 .021 0 .043.01.064 0 .048.01.096.02.143.01.124.03.248.04.374 0 .032.01.064.01.097 0 .056.01.113.01.17.01.056.02.114.02.172 0 .045.01.091.01.137.01.101.01.203.02.305 0 .046 0 .092.01.139v.14c0 .078.01.156.01.234v.38Z"/><path fill="#F7F7F7" d="M1188.06 71.832c0 1.861-.3 3.651-.86 5.324h-5.15a18.384 18.384 0 0 0 1.79-7.948c0-4.624-1.7-8.849-4.51-12.083l-.09-.1c0 .003.01.005.01.007l.12.068.12.061c.07.044.15.087.23.132 0 .004.01.009.02.014.07.044.15.087.22.13 0 .003.01.005.01.007.07.044.14.09.22.135.01.008.02.017.04.025.05.036.11.072.16.108.11.07.22.143.33.217.05.033.09.065.14.098.18.126.36.257.54.39.04.034.09.069.13.102l.06.045c.06.051.13.101.19.153 0 .003.01.005.01.009.07.055.14.11.2.166l.03.024c.06.046.11.092.17.138l.21.186.12.11a.13.13 0 0 1 .04.036c.04.04.09.08.13.118.01.006.01.011.02.016l.21.2c.03.035.07.07.11.104l.03.035c.05.047.1.095.14.143.02.012.03.025.04.038.05.045.09.09.13.135.02.015.03.03.04.044l.09.09c.03.029.05.057.08.086.03.028.05.057.08.085.11.128.23.258.34.39.05.056.1.115.15.173.01.01.02.018.02.028.06.068.12.135.17.204 0 .002 0 .004.01.007.05.07.11.14.16.21.06.072.11.143.17.216v.008c.06.073.11.147.17.221l.12.168.09.126c.12.181.25.366.36.553.04.048.07.098.1.147.03.058.07.115.1.173.04.051.07.102.1.154.21.356.41.72.59 1.093l.09.184c.03.055.05.111.08.167.01.008.01.016.01.023.03.06.06.12.08.18l.09.182v.005c.02.06.05.118.07.178.02.04.04.08.05.12l.09.218c.02.044.04.088.05.132.05.104.08.209.12.314l.06.161c.07.197.14.396.2.596l.03.108c.01.015.01.03.02.045l.03.12c.07.247.14.496.2.747.02.066.03.133.05.2.02.074.03.147.05.222l.03.16c.03.115.05.231.07.347l.03.143.09.574c0 .021 0 .043.01.064 0 .048.01.095.01.143.02.124.04.248.05.373 0 .033.01.065.01.098 0 .056.01.112.01.169.01.057.01.114.02.172 0 .046.01.092.01.138.01.101.01.203.02.304v.14c.01.005.01.011.01.017v.123c0 .077.01.156.01.234v.38Z"/><path fill="#EFF6FA" d="M1226.24 77.127c0 .01 0 .02.01.03h-33.33a16.83 16.83 0 0 1 6.91-11.313 16.764 16.764 0 0 1 9.75-3.115c2.9 0 5.63.734 8.01 2.025l.02.006c.07.043.15.086.23.13l.24.138c.07.042.15.085.22.129.02.017.05.033.08.05.05.033.11.067.16.1a.14.14 0 0 0 .04.024c.07.045.14.093.21.14l.21.133.06.048c.07.041.13.085.19.129 0 .002.01.004.01.005.14.101.29.205.43.31.02.015.03.03.05.044.06.046.13.094.19.141.14.114.29.23.43.35l.21.18.21.178c0 .006.01.012.02.02.05.047.11.097.16.146.02.015.03.03.05.046l.12.116.09.081c.06.054.11.11.17.165.06.058.12.117.17.176l.03.03.18.18c0 .005.01.01.01.015.05.056.11.11.16.167l.06.07.15.168c.06.059.11.118.16.177.01.017.03.032.04.049.06.064.11.13.17.195.06.07.12.142.17.214.01.003.01.005.01.008.06.07.11.14.17.21.05.072.11.143.16.216 0 .003.01.006.01.008.05.073.11.147.16.221l.15.201.03.056.12.16c.09.142.19.285.28.43l.09.147c.04.058.07.115.11.173l.09.154a20.477 20.477 0 0 1 .69 1.277c.02.056.05.112.08.168 0 .007 0 .015.01.023.02.06.05.12.08.18s.05.12.08.182v.005c.03.059.05.118.08.178.02.04.03.08.05.12l.09.217c.01.044.03.088.05.132l.12.315.06.16c.07.198.13.397.19.597.02.036.03.072.04.108 0 .015.01.03.01.045.01.04.02.08.04.12.07.246.14.495.2.746.01.066.03.134.04.2.02.074.04.148.05.223.02.053.03.106.04.16.02.114.04.23.07.347 0 .048.01.095.02.143.03.164.06.328.08.495v-.002Z"/><path fill="#F7F7F7" d="M1167.25 77.138c0 .006.01.013.01.019h-2.5a18.168 18.168 0 0 0-3.12-4.931c.07.037.14.074.2.112l.09.049c.06.033.12.068.18.103l.03.017c.07.043.14.086.22.13l.18.114c.04.027.09.054.13.082.12.078.25.16.37.243.04.028.09.058.13.088.21.146.42.297.63.454.04.032.08.067.13.1l.06.048c.05.04.1.082.16.124.02.024.05.047.08.071a2 2 0 0 1 .16.13l.03.025c.06.046.11.092.16.138.08.061.15.123.22.186l.12.11c.01.011.03.023.04.036.04.04.09.08.13.118 0 .005.01.011.02.016l.21.2c.03.035.07.07.1.104.02.012.03.023.04.035.05.048.1.095.14.143.01.012.03.025.04.038.04.045.09.09.13.136.02.014.03.028.04.043l.09.09c.03.028.05.057.08.086.03.028.05.057.08.085.11.128.23.258.34.39l.15.174c.01.009.02.018.02.028.06.067.12.134.17.203 0 .003 0 .005.01.008.05.07.11.14.16.21.06.072.11.143.17.215v.009c.06.073.11.146.17.22v.001Z"/><path fill="#EFF6FA" d="M1226.24 77.157v.956c-.05.95-.84 1.706-1.81 1.706h-82.52c-.52 0-1-.215-1.35-.56a1.892 1.892 0 0 1-.56-1.353c0-.5.17-.987.48-1.376a16.792 16.792 0 0 1 14-6.31 16.769 16.769 0 0 1 7.66 2.287c.07.043.15.086.22.13l.18.113c.05.027.09.054.13.083.13.078.25.159.37.242.04.029.09.058.13.088.21.146.42.297.63.454.04.033.09.067.13.101l.06.047c.05.041.1.082.16.124.03.024.06.048.08.072.06.043.11.085.16.129l.03.025c.06.046.11.093.17.139a13.487 13.487 0 0 1 .33.296c.01.01.03.023.04.035.04.04.09.08.13.119.01.005.01.01.02.016l.21.199c.03.035.07.07.11.105.02.02.04.042.06.067a.34.34 0 0 1 .08.085.58.58 0 0 1 .07.064c.04.045.09.09.13.135.02.015.03.03.04.044l.09.09c.03.028.05.057.08.086.03.028.05.057.08.085.11.128.23.258.34.39l.15.174c.02.024.04.048.05.084.06.024.1.077.13.138.01.005.01.011.02.016.05.07.11.14.16.211.06.071.11.143.17.215 0 .003 0 .006.01.009.05.073.11.146.16.22 0 .006.01.013.01.02h58.98Z"/><path fill="#F7F7F7" d="M1226.24 78.112a1.807 1.807 0 0 1-1.81 1.706h-2.24c.01-.061.01-1.998.01-2.662v-.22c0-4.67-1.74-8.935-4.61-12.182.01.003.01.005.02.007.07.043.15.086.23.129l.24.139.21.128.09.051c.05.033.1.066.16.1l.03.023c.08.046.15.093.22.14.07.044.14.089.2.134l.07.047c.06.042.13.086.19.13 0 .002 0 .003.01.005.14.101.28.205.42.31l.06.044.18.14c.15.115.29.231.44.35l.21.18c.07.06.14.118.2.179.01.006.02.012.02.019.06.048.11.097.17.146.01.016.03.031.05.046l.12.116.09.082c.05.054.11.11.17.165.06.058.11.117.17.176l.03.029.18.18c0 .005.01.011.01.016.05.055.1.11.16.166l.06.071.15.167c.06.06.11.118.16.178.01.016.03.032.04.048.06.065.11.13.17.195.06.072.11.143.17.215 0 .003.01.005.01.008.05.07.11.14.16.21.06.072.11.143.17.215 0 .003 0 .006.01.009.05.073.11.146.16.22.05.068.1.134.14.202.02.019.03.037.04.055.04.053.08.107.11.161a8.867 8.867 0 0 1 .38.577c.04.058.07.115.11.173l.09.154a15.098 15.098 0 0 1 .68 1.277c.03.055.06.111.08.167.01.008.01.016.01.023l.09.18c.02.06.05.121.08.182v.005c.02.06.05.119.08.178.01.04.03.08.05.12l.09.218c.01.044.03.088.05.132l.12.314a.99.99 0 0 0 .05.161c.07.197.14.396.2.596l.03.109c.01.014.01.03.02.045l.03.119c.08.247.14.496.2.747.02.066.04.133.05.2.02.074.04.147.05.222l.03.16c.03.115.05.231.07.348l.03.142c.03.164.05.329.08.495v.986-.003Z"/><path fill="#EFF6FA" d="M1235.62 76.05H1231c-.76 0-1.38.616-1.38 1.375v.53c0 .759.62 1.374 1.38 1.374h4.62c.76 0 1.38-.615 1.38-1.374v-.53c0-.76-.62-1.374-1.38-1.374Zm-30.36-16.484h-1.56c-.9 0-1.64-.738-1.64-1.64 0-.9.74-1.638 1.64-1.638h1.56c.9 0 1.64.737 1.64 1.639 0 .901-.74 1.639-1.64 1.639Zm17.49-.154h-11.14c-.9 0-1.64-.737-1.64-1.639s.74-1.639 1.64-1.639h11.14c.9 0 1.64.737 1.64 1.64 0 .9-.74 1.638-1.64 1.638Z"/></g><defs><clipPath id="a"><path fill="#fff" d="M0 267h326v112.312H0z"/></clipPath><clipPath id="b"><path fill="#fff" d="M1421 444h197v67.869h-197z"/></clipPath><clipPath id="c"><path fill="#fff" d="M1293 201h358v108.239h-358z"/></clipPath><clipPath id="d"><path fill="#fff" d="M879 487h211v51.491H879z"/></clipPath><clipPath id="e"><path fill="#fff" d="M11 0h220.754v56.48H11z"/></clipPath><clipPath id="f"><path fill="#fff" d="M1140 55h97v24.817h-97z"/></clipPath></defs></svg>